<svg xmlns="http://www.w3.org/2000/svg" xmlns:xlink="http://www.w3.org/1999/xlink" viewBox="0 0 265.33 275.99"><defs><style>.cls-1{fill:none;}.cls-2{fill:#405397;}.cls-3{clip-path:url(#clip-path);}.cls-13,.cls-4{fill:#a6cee9;}.cls-13,.cls-4,.cls-5{stroke:#000;stroke-width:3px;}.cls-4,.cls-5{stroke-linejoin:round;}.cls-5,.cls-6{fill:#fff;}.cls-7{fill:#b7b7b7;}.cls-8{fill:#791e30;}.cls-9{clip-path:url(#clip-path-2);}.cls-10{fill:#c5ddea;}.cls-11{clip-path:url(#clip-path-3);}.cls-12{clip-path:url(#clip-path-4);}.cls-13{stroke-miterlimit:10;}</style><clipPath id="clip-path"><circle class="cls-1" cx="142.32" cy="123.01" r="123.01"/></clipPath><clipPath id="clip-path-2"><path class="cls-1" d="M230.29,260.66h-173c-7.54,0-13.22-3.55-13.22-13.22V96.5c0-7.83,3.66-13.22,13.22-13.22h173A13.22,13.22,0,0,1,243.51,96.5V247.44A13.22,13.22,0,0,1,230.29,260.66Z"/></clipPath><clipPath id="clip-path-3"><path class="cls-1" d="M88.53,109c-5.34,0-9.66-4.71-9.66-10.52V66.55c0-5.81,4.32-10.52,9.66-10.52s9.66,4.71,9.66,10.52V98.47C98.19,104.28,93.86,109,88.53,109Z"/></clipPath><clipPath id="clip-path-4"><path class="cls-1" d="M199,109c-5.33,0-9.66-4.71-9.66-10.52V66.55c0-5.81,4.33-10.52,9.66-10.52s9.66,4.71,9.66,10.52V98.47C208.7,104.28,204.38,109,199,109Z"/></clipPath></defs><title>Fichier 1</title><g id="Calque_2" data-name="Calque 2"><g id="Calque_1-2" data-name="Calque 1"><circle class="cls-2" cx="142.32" cy="123.01" r="123.01"/><g class="cls-3"><rect class="cls-4" x="42.53" y="81.7" width="199.44" height="180.7" rx="12.14"/><path class="cls-5" d="M58.2,127.79H227.15a0,0,0,0,1,0,0V240a12.22,12.22,0,0,1-12.22,12.22H70.43A12.22,12.22,0,0,1,58.2,240V127.79A0,0,0,0,1,58.2,127.79Z"/><circle class="cls-6" cx="88.58" cy="101.69" r="15.64"/><circle class="cls-6" cx="199.04" cy="101.69" r="15.64"/><path class="cls-4" d="M88.58,110.52A11.15,11.15,0,0,1,77.43,99.37V65.54a11.15,11.15,0,0,1,22.3,0V99.37A11.15,11.15,0,0,1,88.58,110.52Z"/><rect class="cls-4" x="187.89" y="54.39" width="22.3" height="56.13" rx="10.24"/><rect class="cls-7" x="70.89" y="177.68" width="24.61" height="24.61"/><rect class="cls-7" x="70.89" y="208.82" width="24.61" height="24.61"/><rect class="cls-7" x="100.88" y="146.54" width="24.61" height="24.61"/><rect class="cls-7" x="100.88" y="177.68" width="24.61" height="24.61"/><rect class="cls-7" x="100.88" y="208.82" width="24.61" height="24.61"/><rect class="cls-7" x="130.87" y="146.54" width="24.61" height="24.61"/><rect class="cls-7" x="130.87" y="177.68" width="24.61" height="24.61"/><rect class="cls-7" x="130.87" y="208.82" width="24.61" height="24.61"/><rect class="cls-7" x="160.85" y="146.54" width="24.61" height="24.61"/><rect class="cls-8" x="160.85" y="177.68" width="24.61" height="24.61"/><rect class="cls-7" x="160.85" y="208.82" width="24.61" height="24.61"/><rect class="cls-7" x="190.84" y="146.54" width="24.61" height="24.61"/><rect class="cls-7" x="190.84" y="177.68" width="24.61" height="24.61"/><g class="cls-9"><path class="cls-10" d="M68.2,77.24c-.72.8,10.13,3.2.9,3.4-11.79.25-20.51,8.53-20.51,14.84v152c0,9.06,6.39,16.22,14.84,16.22,12.49,0,1.18,15-13.88,11.9-6.46-1.32-17.38-7.58-26.33-19.06C-3.56,222.2-1.5,162.53,2.07,129.33,6,92.44,9.55,59.88,27.45,55,42.69,50.8,60.6,68.79,68.2,77.24Z"/></g><g class="cls-11"><path class="cls-10" d="M93,53.25S81.66,58.11,81.66,66.09V99.53c0,7.94,10,15.25,10,15.25l-19.58,1.91V58.28l19-9.67Z"/></g><g class="cls-12"><path class="cls-10" d="M203.47,53.25s-11.3,4.86-11.3,12.84V99.53c0,7.94,10,15.25,10,15.25l-19.58,1.91V58.28l19-9.67Z"/></g></g><circle class="cls-13" cx="134.37" cy="23.1" r="3.12"/><circle class="cls-13" cx="253.33" cy="102.74" r="3.12"/><circle class="cls-13" cx="66.33" cy="46.04" r="2.08"/><circle class="cls-13" cx="166.22" cy="40.27" r="5.77"/><circle class="cls-13" cx="31.8" cy="138.5" r="5.77"/></g></g></svg>