<svg xmlns="http://www.w3.org/2000/svg" xmlns:xlink="http://www.w3.org/1999/xlink" viewBox="0 0 302.63 246.02"><defs><style>.cls-1,.cls-18{fill:none;}.cls-2{fill:#405397;}.cls-3,.cls-5{fill:#a6cee9;}.cls-18,.cls-3,.cls-5,.cls-6{stroke:#000;}.cls-18,.cls-3{stroke-miterlimit:10;}.cls-3,.cls-5,.cls-6{stroke-width:3px;}.cls-4{clip-path:url(#clip-path);}.cls-5,.cls-6{stroke-linejoin:round;}.cls-6{fill:#fff;}.cls-7{fill:#e2e2e1;}.cls-8{fill:#c5ddea;}.cls-9{fill:#d1d0d1;}.cls-10{clip-path:url(#clip-path-2);}.cls-11{clip-path:url(#clip-path-3);}.cls-12{clip-path:url(#clip-path-4);}.cls-13{clip-path:url(#clip-path-5);}.cls-14{clip-path:url(#clip-path-6);}.cls-15{clip-path:url(#clip-path-7);}.cls-16{clip-path:url(#clip-path-8);}.cls-17{clip-path:url(#clip-path-9);}.cls-18{stroke-linecap:round;stroke-width:4px;}</style><clipPath id="clip-path"><path class="cls-1" d="M307.29,209c-54,29.23-154.21,37-174.52,37a123,123,0,0,1,0-246c28.66,0,69.52,12.74,99,44.54C269.17,84.91,344.64,188.78,307.29,209Z"/></clipPath><clipPath id="clip-path-2"><path class="cls-1" d="M28.62,66.6a5,5,0,0,1,0-10H37.1v10Z"/></clipPath><clipPath id="clip-path-3"><path class="cls-1" d="M19.91,122.49a5,5,0,1,1,0-9.95h8.47v9.95Z"/></clipPath><clipPath id="clip-path-4"><path class="cls-1" d="M49.05,122.61a5,5,0,1,1,0-10h8.49v10Z"/></clipPath><clipPath id="clip-path-5"><path class="cls-1" d="M34.26,150.07a5,5,0,1,1,0-10h8.5v10Z"/></clipPath><clipPath id="clip-path-6"><path class="cls-1" d="M46.79,179.49a5.2,5.2,0,0,1,0-10.4h8.55v10.4Z"/></clipPath><clipPath id="clip-path-7"><path class="cls-1" d="M73.44,66.66a5,5,0,1,1,0-10.1H82v10.1Z"/></clipPath><clipPath id="clip-path-8"><path class="cls-1" d="M8.89,94.55a5,5,0,1,1,0-10h8.54v10Z"/></clipPath><clipPath id="clip-path-9"><path class="cls-1" d="M61.17,94.49a5,5,0,1,1,0-10h8.59v10Z"/></clipPath></defs><title>camion</title><g id="Calque_2" data-name="Calque 2"><g id="Calque_1-2" data-name="Calque 1"><circle class="cls-2" cx="132.77" cy="123.01" r="123.01"/><circle class="cls-3" cx="156.63" cy="16.65" r="3.12"/><circle class="cls-3" cx="171.16" cy="218.1" r="3.12"/><circle class="cls-3" cx="74.35" cy="35.9" r="2.08"/><circle class="cls-3" cx="188.48" cy="33.82" r="5.77"/><circle class="cls-3" cx="109.64" cy="227" r="5.77"/><g class="cls-4"><rect class="cls-3" x="22.19" y="55.12" width="39.24" height="12.98" rx="6.49"/><rect class="cls-3" x="13.5" y="111.02" width="22.86" height="12.98" rx="6.49"/><rect class="cls-3" x="2.4" y="83.07" width="46.02" height="12.98" rx="6.49"/><polygon class="cls-5" points="293.15 181 213.79 181 213.79 94.66 256.31 94.66 293.15 137.83 293.15 181"/><polygon class="cls-6" points="230.11 100.71 230.11 138.72 284.87 138.72 253.3 100.71 230.11 100.71"/><circle cx="249.23" cy="186.18" r="20.4"/><circle class="cls-7" cx="249.23" cy="186.18" r="6.4"/><rect class="cls-8" x="215.2" y="96.14" width="6.73" height="83.35"/><path class="cls-5" d="M73.42,55.12a6.52,6.52,0,0,0,0,13l69.12-.09a7.47,7.47,0,0,1,0,14.94H61.15a6.51,6.51,0,1,0,0,13l67.95-.08a7.58,7.58,0,1,1,0,15.16h-80a6.5,6.5,0,0,0-6.51,6.51h0a6.51,6.51,0,0,0,6.51,6.51h60.93a7.25,7.25,0,1,1,0,14.49H34.26a6.51,6.51,0,1,0,0,13H94a8,8,0,0,1,0,16H46.83a6.5,6.5,0,0,0-6.51,6.51A7,7,0,0,0,47.07,181H206V54.93Z"/><circle cx="123.09" cy="186.18" r="20.4"/><circle class="cls-9" cx="123.09" cy="186.18" r="6.4"/><g class="cls-10"><path class="cls-8" d="M34.53,55.5c-3.86,1-6,3.34-6,5.84,0,4,3.37,6.12,6.77,6.29,2,.1-12,4.12-14.83-1.36-1.74-3.39-.13-8.14,3.18-10.54C27.83,52.71,38.05,54.62,34.53,55.5Z"/></g><g class="cls-11"><path class="cls-8" d="M25.82,111.42c-3.86,1-6,3.32-6,5.82,0,4,3.36,6.1,6.75,6.28,2,.1-12,4.11-14.8-1.36-1.74-3.38-.13-8.12,3.18-10.52C19.13,108.63,29.33,110.53,25.82,111.42Z"/></g><g class="cls-12"><path class="cls-8" d="M55,111.51c-3.87,1-6,3.34-6,5.84,0,4,3.38,6.12,6.77,6.29,2,.1-12,4.12-14.85-1.36-1.74-3.39-.12-8.13,3.2-10.54C48.26,108.72,58.49,110.63,55,111.51Z"/></g><g class="cls-13"><path class="cls-8" d="M40.19,139c-3.87,1-6,3.33-6,5.83,0,4,3.38,6.11,6.77,6.28,2,.11-12,4.12-14.85-1.35-1.74-3.39-.12-8.13,3.19-10.54C33.48,136.19,43.71,138.09,40.19,139Z"/></g><g class="cls-14"><path class="cls-8" d="M52.75,167.93c-3.89,1-6,3.47-6,6.07,0,4.15,3.39,6.38,6.81,6.56,2.05.11-12.1,4.3-14.94-1.41-1.75-3.53-.12-8.48,3.21-11C46,165,56.29,167,52.75,167.93Z"/></g><g class="cls-15"><path class="cls-8" d="M79.43,55.43c-3.92,1-6.05,3.37-6.05,5.9,0,4,3.41,6.2,6.85,6.37,2.06.11-12.17,4.18-15-1.37-1.76-3.43-.12-8.24,3.23-10.68C72.64,52.6,83,54.53,79.43,55.43Z"/></g><g class="cls-16"><path class="cls-8" d="M14.84,83.42c-3.89,1-6,3.34-6,5.85,0,4,3.4,6.14,6.81,6.31,2.05.11-12.1,4.14-14.93-1.36C-1,90.82.59,86.06,3.92,83.64,8.1,80.61,18.38,82.53,14.84,83.42Z"/></g><g class="cls-17"><path class="cls-8" d="M67.16,83.39c-3.91,1-6,3.34-6,5.84,0,4,3.41,6.12,6.84,6.29,2.06.11-12.16,4.13-15-1.36-1.76-3.39-.12-8.14,3.23-10.55C60.38,80.59,70.72,82.5,67.16,83.39Z"/></g><line class="cls-18" x1="43.17" y1="206.59" x2="276.35" y2="206.59"/><line class="cls-18" x1="285.15" y1="206.59" x2="300.63" y2="206.59"/></g></g></g></svg>